<svg width="24" height="24" viewBox="0 0 24 24" fill="none" xmlns="http://www.w3.org/2000/svg">
<path d="M5.96256 9.54335C5.96256 9.16272 6.26477 8.85416 6.63756 8.85416H8.4938C8.86659 8.85416 9.1688 9.16272 9.1688 9.54335C9.1688 9.92398 8.86659 10.2325 8.4938 10.2325H6.63756C6.26477 10.2325 5.96256 9.92398 5.96256 9.54335Z" fill="#9296A0"/>
<path d="M6.63756 11.3812C6.26477 11.3812 5.96256 11.6898 5.96256 12.0704C5.96256 12.451 6.26477 12.7596 6.63756 12.7596H9.11255C9.48534 12.7596 9.78755 12.451 9.78755 12.0704C9.78755 11.6898 9.48534 11.3812 9.11255 11.3812H6.63756Z" fill="#9296A0"/>
<path fill-rule="evenodd" clip-rule="evenodd" d="M19.137 18.6576L19.434 18.6212C20.298 18.5119 21 17.6924 21 16.8183V5.82801C21 4.73535 20.118 3.92496 19.047 4.01602H18.993C17.103 4.17992 14.232 5.1542 12.63 6.17401L12.477 6.27417C12.216 6.43807 11.784 6.43807 11.523 6.27417L11.298 6.13759C9.696 5.12689 6.834 4.16171 4.944 4.00691C3.873 3.91586 3 4.73535 3 5.8189V16.8183C3 17.6924 3.702 18.5119 4.566 18.6212L4.827 18.6576C6.78 18.9217 9.795 19.9233 11.523 20.8794L11.559 20.8976C11.802 21.0341 12.189 21.0341 12.423 20.8976C14.151 19.9324 17.175 18.9217 19.137 18.6576ZM19.0531 5.39438C19.0884 5.39422 19.1238 5.39264 19.159 5.38964C19.325 5.37553 19.4437 5.43025 19.5187 5.49963C19.5924 5.56775 19.65 5.67325 19.65 5.82801V16.8183C19.65 16.9972 19.4558 17.2285 19.2695 17.2531L19.2681 17.2533L18.976 17.2891L18.9606 17.2911C17.1444 17.5355 14.5587 18.3466 12.675 19.23V7.67788C12.846 7.62658 13.0187 7.5522 13.1842 7.44827L13.2057 7.43453L13.3511 7.33929C14.7577 6.44644 17.3754 5.55404 19.0531 5.39438ZM11.325 7.67786C11.1577 7.62769 10.9889 7.55547 10.8268 7.45512L10.6081 7.32239L10.5884 7.31018C9.16675 6.41327 6.51069 5.51803 4.83606 5.38088L4.83198 5.38054C4.67086 5.36684 4.55588 5.42005 4.48165 5.4894C4.40734 5.55881 4.34999 5.66631 4.34999 5.8189V16.8183C4.34999 16.9977 4.54517 17.2296 4.73194 17.2533L4.74881 17.2555L5.00422 17.2912L5.0072 17.2916C6.83224 17.5388 9.44106 18.3562 11.325 19.2406V7.67786Z" fill="#9296A0"/>
</svg>
