<svg width="24" height="24" viewBox="0 0 24 24" fill="none" xmlns="http://www.w3.org/2000/svg">
<path fill-rule="evenodd" clip-rule="evenodd" d="M9.85306 2.00098C9.85754 2.00089 9.86223 2 9.86673 2H17.0113C19.746 2 21.0204 3.14412 21.4019 5.95312L21.6626 8.53906C21.7562 9.45888 21.5348 10.3389 21.0396 11.0654C21.061 11.1319 21.0767 11.2014 21.0767 11.2744V15.4512C21.086 20.0372 19.1227 22 14.5367 22H9.51419C4.91885 22 2.96537 20.0372 2.96537 15.4512V11.2744C2.96538 11.2151 2.97442 11.1578 2.9888 11.1025C2.4758 10.3691 2.24622 9.4744 2.34134 8.53906L2.59232 5.98145C2.983 3.14439 4.25716 2.00012 6.99173 2H9.82962C9.83746 2 9.84526 2.00071 9.85306 2.00098ZM12.0259 17.3486C10.8539 17.3486 10.398 17.8046 10.398 18.9766V20.6045H13.6538V18.9766C13.6538 17.8047 13.1977 17.3487 12.0259 17.3486ZM9.1099 11.1768C8.40365 12.0929 7.29713 12.6971 6.10892 12.6973C5.48195 12.6973 4.88742 12.5573 4.3599 12.292V15.4512C4.3599 19.0802 5.58747 20.4737 9.00248 20.5947V18.9766C9.00254 17.0232 10.0725 15.9531 12.0259 15.9531C13.9791 15.9533 15.0483 17.0233 15.0484 18.9766V20.5938C18.4562 20.4705 19.6812 19.0768 19.6812 15.4512V12.2715C19.1443 12.5493 18.5371 12.6973 17.8951 12.6973C16.728 12.6972 15.6398 12.1143 14.9322 11.2256C14.8509 11.3421 14.7631 11.4551 14.6665 11.5625C13.9782 12.2973 13.0481 12.6972 12.0249 12.6973C11.0017 12.6973 10.0711 12.2974 9.41068 11.5625C9.30049 11.4399 9.20015 11.3111 9.1099 11.1768ZM6.99173 3.39551C4.95487 3.3956 4.27571 4.00957 3.97806 6.13965L3.72709 8.67871C3.65268 9.38554 3.8667 10.0461 4.31302 10.5391C4.75953 11.0321 5.39264 11.3027 6.10892 11.3027C7.28084 11.3025 8.36938 10.316 8.48099 9.15332L9.05716 3.39551H6.99173ZM15.5318 8.84668C15.5476 9.00502 15.5519 9.16177 15.5484 9.31641C15.7479 10.4067 16.7783 11.3026 17.8951 11.3027C18.602 11.3027 19.2351 11.0321 19.691 10.5391C20.1372 10.0461 20.342 9.3855 20.2769 8.67871L20.0161 6.12109C19.7278 4.01877 19.0485 3.39551 17.0113 3.39551H14.9849L15.5318 8.84668ZM9.93119 8.98633C9.86618 9.60932 10.0525 10.1952 10.4429 10.623C11.2336 11.4975 12.8153 11.4975 13.606 10.623C13.9317 10.2585 14.1123 9.79047 14.1265 9.28906L13.5396 3.39551H10.4898L9.93119 8.98633Z" fill="#9296A0"/>
</svg>
