<svg width="24" height="24" viewBox="0 0 24 24" fill="none" xmlns="http://www.w3.org/2000/svg">
<path fill-rule="evenodd" clip-rule="evenodd" d="M5.66866 3C6.90574 3 7.94622 3.85518 8.2486 5.01539C8.28055 5.01091 8.31318 5.00859 8.34635 5.00859L16.0607 5.00859C18.0969 5.00859 19.7475 6.68557 19.7475 8.75422C19.7475 10.8229 18.0969 12.4999 16.0607 12.4999H6.99121C5.67034 12.4999 4.59957 13.5877 4.59957 14.9297C4.59957 16.2716 5.67035 17.3595 6.99121 17.3595L10.172 17.3595L9.18772 16.3822C8.90788 16.1043 8.90273 15.6486 9.17622 15.3643C9.44971 15.08 9.89828 15.0748 10.1781 15.3526L12.4058 17.5645C12.5424 17.7001 12.6193 17.8861 12.6191 18.0802C12.6188 18.2742 12.5415 18.46 12.4045 18.5953L10.1769 20.7962C9.89634 21.0734 9.44779 21.067 9.175 20.782C8.9022 20.497 8.90846 20.0413 9.18897 19.7642L10.1658 18.7991H6.99121C4.88776 18.7991 3.18259 17.0667 3.18259 14.9297C3.18259 12.7926 4.88776 11.0603 6.99121 11.0603H16.0607C17.3143 11.0603 18.3305 10.0278 18.3305 8.75422C18.3305 7.48064 17.3143 6.44819 16.0607 6.44819L8.34635 6.44819C8.31013 6.44819 8.27454 6.44543 8.23978 6.4401C7.92642 7.58349 6.89398 8.42249 5.66866 8.42249C4.1948 8.42249 3 7.20863 3 5.71125C3 4.21387 4.1948 3 5.66866 3ZM5.66866 4.4396C6.35993 4.4396 6.92033 5.00893 6.92033 5.71125C6.92033 6.41356 6.35994 6.98289 5.66866 6.98289C4.97738 6.98289 4.41699 6.41356 4.41699 5.71125C4.41699 5.00893 4.97738 4.4396 5.66866 4.4396Z" fill="#9296A0"/>
<path fill-rule="evenodd" clip-rule="evenodd" d="M20 18.0438C20 16.5464 18.8052 15.3325 17.3313 15.3325C15.8575 15.3325 14.6627 16.5464 14.6627 18.0438C14.6627 19.5412 15.8575 20.755 17.3313 20.755C18.8052 20.755 20 19.5412 20 18.0438ZM18.583 18.0438C18.583 17.3415 18.0226 16.7721 17.3313 16.7721C16.6401 16.7721 16.0797 17.3415 16.0797 18.0438C16.0797 18.7461 16.6401 19.3154 17.3313 19.3154C18.0226 19.3154 18.583 18.7461 18.583 18.0438Z" fill="#9296A0"/>
</svg>
