<svg width="24" height="24" viewBox="0 0 24 24" fill="none" xmlns="http://www.w3.org/2000/svg">
<path d="M21 20.0878C21.4142 20.0878 21.75 20.4236 21.75 20.8378C21.75 21.252 21.4142 21.5878 21 21.5878H3C2.58579 21.5878 2.25 21.252 2.25 20.8378C2.25 20.4236 2.58579 20.0878 3 20.0878H21Z" fill="#9296A0"/>
<path d="M12.3296 20.4438V11.0395C12.3296 10.655 12.0245 10.3492 11.6401 10.349H5.6665C5.28197 10.349 4.97607 10.6549 4.97607 11.0395V20.4887C4.97607 20.9029 4.64029 21.2387 4.22607 21.2387C3.81186 21.2387 3.47607 20.9029 3.47607 20.4887V11.0395C3.47607 9.8265 4.45354 8.84903 5.6665 8.84903H11.6401C12.853 8.8492 13.8296 9.8266 13.8296 11.0395V20.4438C13.8296 20.858 13.4938 21.1938 13.0796 21.1938C12.6655 21.1936 12.3296 20.8579 12.3296 20.4438Z" fill="#9296A0"/>
<path d="M19.6991 13.176C19.6988 12.354 19.0319 11.6877 18.2098 11.6877C17.388 11.688 16.7218 12.3542 16.7216 13.176V14.6838C16.7216 15.5059 17.3878 16.1728 18.2098 16.1731C19.0321 16.1731 19.6991 15.506 19.6991 14.6838V13.176ZM21.1991 14.6838C21.1991 16.3344 19.8605 17.6731 18.2098 17.6731C16.5594 17.6728 15.2216 16.3343 15.2216 14.6838V13.176C15.2218 11.5257 16.5596 10.188 18.2098 10.1877C19.8603 10.1877 21.1988 11.5256 21.1991 13.176V14.6838Z" fill="#9296A0"/>
<path d="M17.4595 20.7138V16.9228C17.4595 16.5086 17.7956 16.1731 18.2098 16.1731C18.6241 16.1731 18.9595 16.5086 18.9595 16.9228V20.7138C18.9595 21.128 18.6237 21.4638 18.2095 21.4638C17.7953 21.4638 17.4595 21.128 17.4595 20.7138Z" fill="#9296A0"/>
<path d="M17.4597 10.9375V5.12109C17.4595 4.45552 16.9173 3.91406 16.2517 3.91406H8.72534C8.05993 3.91432 7.51856 4.45568 7.51831 5.12109V9.29492C7.51831 9.70914 7.18252 10.0449 6.76831 10.0449C6.3541 10.0449 6.01831 9.70914 6.01831 9.29492V5.12109C6.01856 3.62725 7.2315 2.41432 8.72534 2.41406H16.2517C17.7458 2.41406 18.9595 3.6271 18.9597 5.12109V10.9375C18.9597 11.3517 18.624 11.6876 18.2098 11.6877C17.7956 11.6877 17.4597 11.3517 17.4597 10.9375Z" fill="#9296A0"/>
<path d="M7.16246 14.2564C7.62223 14.2564 7.99496 13.8837 7.99496 13.4239C7.99496 12.9642 7.62223 12.5914 7.16246 12.5914C6.70268 12.5914 6.32996 12.9642 6.32996 13.4239C6.32996 13.8837 6.70268 14.2564 7.16246 14.2564Z" fill="#9296A0"/>
<path d="M10.1321 14.2564C10.5918 14.2564 10.9646 13.8837 10.9646 13.4239C10.9646 12.9642 10.5918 12.5914 10.1321 12.5914C9.67228 12.5914 9.29956 12.9642 9.29956 13.4239C9.29956 13.8837 9.67228 14.2564 10.1321 14.2564Z" fill="#9296A0"/>
<path d="M7.16246 16.9453C7.62223 16.9453 7.99496 16.5726 7.99496 16.1128C7.99496 15.6531 7.62223 15.2803 7.16246 15.2803C6.70268 15.2803 6.32996 15.6531 6.32996 16.1128C6.32996 16.5726 6.70268 16.9453 7.16246 16.9453Z" fill="#9296A0"/>
<path d="M10.1321 16.9453C10.5918 16.9453 10.9646 16.5726 10.9646 16.1128C10.9646 15.6531 10.5918 15.2803 10.1321 15.2803C9.67228 15.2803 9.29956 15.6531 9.29956 16.1128C9.29956 16.5726 9.67228 16.9453 10.1321 16.9453Z" fill="#9296A0"/>
</svg>
